# xmcd
#
# Track frame offsets:
#	183
#	15540
#	35093
#	52045
#	65798
#	83750
#	101918
#	117645
#	134098
#	149423
#	165918
#	184033
#	201380
#	216803
#	234390
#	250920
#
# Disc length: 3568 seconds
#
# Revision: 1
# Processed by: cddbd v1.5.2PL0 Copyright (c) Steve Scherf et al.
# Submitted via: audiograbber 1.83.01
#
DISCID=f50dee10
DTITLE=Various  - Dancing In The Streets - Million Sellers
DYEAR=1990
DGENRE=Soul
TTITLE0=Mary Wells - My Guy
TTITLE1=Jean And Scherrie and Lynda - Stop In The Name Of Love
TTITLE2=The Contours - The Tracks Of My Tears
TTITLE3=Kim Weston - Dancing In the Street
TTITLE4=Rose Banks - You Keep Me Hanging On
TTITLE5=Babrbara McNair - For Once In My Life
TTITLE6=Joe Stubbs - My Girl
TTITLE7=The Velvelettes - Come See About Me
TTITLE8=The Satintones - I Can't Get Next To You
TTITLE9=Bobby Taylor and The Vancouvers - Get Ready
TTITLE10=Motorcity All Stars - I Can't Help Myself
TTITLE11=Three Ounces Of Love - Where Did Our Love Go
TTITLE12=Sylvia Moy - My Cherie Amour
TTITLE13=G.C. Cameron - It's A Shame
TTITLE14=Barbara Randolph - You Can't Hurry Love
TTITLE15=Frankie Gaye - What's Going On
EXTD=All New Recordings from 1989/1990
EXTT0=
EXTT1=
EXTT2=
EXTT3=
EXTT4=
EXTT5=
EXTT6=
EXTT7=
EXTT8=
EXTT9=
EXTT10=
EXTT11=
EXTT12=
EXTT13=
EXTT14=
EXTT15=
PLAYORDER=
